<svg width="18" height="18" viewBox="0 0 18 18" fill="none" xmlns="http://www.w3.org/2000/svg">
<g id="Group 212">
<path id="Vector" d="M8.57018 17.8C5.92375 17.8 1 13.8556 1 10.1249V3.00402C1 2.83128 1.14466 2.69172 1.32378 2.68811L1.75266 2.68087C1.76904 2.68087 3.45028 2.64705 5.18343 1.96077C6.96211 1.25874 8.10854 0.449284 8.12067 0.440987L8.37318 0.261864C8.43059 0.221601 8.499 0.199986 8.56911 0.199958C8.63875 0.199506 8.70679 0.220773 8.76377 0.2608L9.02118 0.441412C9.03288 0.449709 10.1804 1.25831 11.9569 1.96119C13.6918 2.64747 15.373 2.6813 15.3902 2.6813L15.8157 2.68853C15.9951 2.69215 16.1393 2.8317 16.1393 3.00444L16.1429 10.1253C16.1429 13.8556 11.2189 17.8 8.57018 17.8ZM14.975 3.83326C14.3242 3.78433 12.9551 3.61627 11.5327 3.05316C10.0793 2.47878 9.01075 1.8327 8.57018 1.54742C8.13088 1.83164 7.06167 2.47793 5.60869 3.05316C4.1889 3.61499 2.82356 3.78305 2.16387 3.83326V10.1249C2.16387 13.0506 6.45368 16.6269 8.57018 16.6269C9.39048 16.6269 10.989 15.9613 12.5602 14.4996C14.0749 13.0917 14.979 11.456 14.979 10.1253L14.975 3.83326Z" fill="#444444" stroke="#444444" stroke-width="0.4"/>
<path id="Vector_2" d="M7.92874 11.5052C8.0009 11.4748 8.06624 11.4303 8.1209 11.3743L11.993 7.47498C12.1053 7.36234 12.1684 7.20978 12.1684 7.05073C12.1684 6.89169 12.1053 6.73913 11.993 6.62649C11.9381 6.57059 11.8725 6.52618 11.8002 6.49587C11.7279 6.46556 11.6503 6.44995 11.5719 6.44995C11.4935 6.44995 11.4159 6.46556 11.3436 6.49587C11.2713 6.52618 11.2058 6.57059 11.1508 6.62649L7.70079 10.1016L6.3343 8.72725C6.27925 8.67143 6.21365 8.62712 6.14133 8.59687C6.069 8.56662 5.99139 8.55104 5.91299 8.55104C5.8346 8.55104 5.75698 8.56662 5.68466 8.59687C5.61234 8.62712 5.54674 8.67143 5.49169 8.72725C5.38009 8.84025 5.3175 8.99267 5.3175 9.15149C5.3175 9.31031 5.38009 9.46273 5.49169 9.57573L7.27894 11.3745C7.33408 11.4304 7.39976 11.4747 7.47218 11.505C7.54459 11.5353 7.6223 11.5509 7.70079 11.551C7.77907 11.5511 7.85658 11.5355 7.92874 11.5052Z" fill="#3E7AFA" stroke="#3E7AFA" stroke-width="0.4"/>
</g>
</svg>
