<svg width="18" height="18" viewBox="0 0 18 18" fill="none" xmlns="http://www.w3.org/2000/svg">
<g id="Group 214">
<path id="Vector" d="M12.6125 5.5359e-07H5.47652C4.95208 -4.05376e-05 4.44685 0.196422 4.06136 0.550294C3.67587 0.904167 3.43839 1.3895 3.39617 1.90973L3.38365 2.08592C3.34887 2.67265 3.34991 3.52592 3.37843 4.56785L3.40139 5.29581C3.4327 6.14942 3.47826 7.06465 3.50157 7.39523C3.57565 8.42885 3.8087 9.126 4.28974 9.82523L4.38122 9.95435L4.47513 10.081C4.50643 10.1226 4.53878 10.1641 4.57461 10.2084L4.65078 10.3026L1.2727 12.8804C1.18793 12.945 1.11924 13.0281 1.07196 13.1234C1.02467 13.2187 1.00005 13.3235 1 13.4297V16.6154C1 16.9826 1.14658 17.3348 1.4075 17.5945C1.66842 17.8541 2.02231 18 2.3913 18H15.6087C15.9777 18 16.3316 17.8541 16.5925 17.5945C16.8534 17.3348 17 16.9826 17 16.6154V13.4297L16.9976 13.3709C16.9893 13.2745 16.9608 13.1809 16.914 13.0961C16.8671 13.0113 16.8029 12.9372 16.7256 12.8787L13.4049 10.3638L13.4313 10.3348C14.1197 9.55904 14.4337 8.81273 14.5736 7.41531L14.591 7.22354C14.6922 5.99989 14.7896 2.99562 14.6918 1.89277C14.6458 1.37567 14.4068 0.894499 14.0219 0.544128C13.637 0.193758 13.1342 -0.000378348 12.6125 5.5359e-07ZM5.47652 1.38462H12.6125C12.9739 1.38462 13.2741 1.65808 13.3057 2.01496C13.4003 3.07765 13.2883 6.29065 13.1892 7.27823C13.0817 8.352 12.8936 8.82969 12.4414 9.35723L12.3885 9.4185C12.287 9.53273 11.8379 10.0073 11.8623 9.98135L11.8261 10.0229C11.7688 10.0951 11.7265 10.1779 11.7018 10.2666C11.6771 10.3552 11.6703 10.4479 11.682 10.5392C11.6936 10.6305 11.7235 10.7185 11.7697 10.7982C11.8159 10.8778 11.8777 10.9475 11.9513 11.0032L15.6087 13.7728V16.6154H2.3913V13.7714L6.07513 10.961C6.15 10.9039 6.21241 10.8322 6.25858 10.7503C6.30475 10.6685 6.33371 10.5781 6.3437 10.4848C6.35369 10.3914 6.3445 10.297 6.31668 10.2073C6.28887 10.1176 6.24302 10.0345 6.18191 9.963L5.77078 9.47804C5.6719 9.36052 5.57757 9.23928 5.488 9.11458C5.13322 8.62131 4.96661 8.17615 4.89983 7.42535L4.88939 7.29762C4.86539 6.95735 4.81461 5.92338 4.78435 5.02858L4.76591 4.40827C4.73913 3.36115 4.74226 2.52415 4.78296 2.02085C4.79711 1.84748 4.87633 1.68577 5.00484 1.56788C5.13335 1.44999 5.30174 1.38457 5.47652 1.38462Z" fill="#444444"/>
<path id="Vector_2" d="M13.3523 4.00001C13.5196 3.99908 13.6807 4.07888 13.8015 4.22256C13.9222 4.36623 13.9933 4.56253 13.9995 4.76998C14.0058 4.97742 13.9469 5.17977 13.8351 5.33428C13.7234 5.48879 13.5676 5.58335 13.4007 5.59799L13.3523 5.59999H4.64767C4.48036 5.60092 4.3193 5.52112 4.19853 5.37744C4.07776 5.23377 4.00673 5.03747 4.00045 4.83002C3.99418 4.62258 4.05314 4.42023 4.16489 4.26572C4.27663 4.11121 4.43241 4.01665 4.59932 4.00201L4.64767 4.00001H13.3523Z" fill="#444444"/>
<path id="Vector 34" d="M6 14H12" stroke="#3E7AFA" stroke-width="1.4" stroke-linecap="round"/>
</g>
</svg>
