<svg width="18" height="18" viewBox="0 0 18 18" fill="none" xmlns="http://www.w3.org/2000/svg">
<g id="Group 213">
<path id="Vector" d="M14.9094 6.79995H14.325V5.69995C14.325 4.96089 14.1789 4.24073 13.8902 3.56354C13.6134 2.9087 13.2147 2.32089 12.7094 1.81558C12.2041 1.31026 11.6163 0.913232 10.9614 0.634795C10.2842 0.346045 9.56406 0.199951 8.825 0.199951C8.08594 0.199951 7.36578 0.346045 6.68859 0.634795C6.03375 0.911514 5.44594 1.31026 4.94063 1.81558C4.43531 2.32089 4.03828 2.9087 3.75984 3.56354C3.47109 4.24073 3.325 4.96089 3.325 5.69995V6.79995H2.74063C1.85031 6.79995 1.125 7.52526 1.125 8.41558V16.1843C1.125 17.0746 1.85031 17.8 2.74063 17.8H14.9094C15.7997 17.8 16.525 17.0746 16.525 16.1843V8.41558C16.525 7.52526 15.7997 6.79995 14.9094 6.79995ZM4.35625 5.69995C4.35625 4.5123 4.82203 3.39167 5.66937 2.54433C6.51672 1.69698 7.63734 1.2312 8.825 1.2312C10.0127 1.2312 11.1333 1.69698 11.9806 2.54433C12.828 3.39167 13.2937 4.5123 13.2937 5.69995V6.79995H4.35625V5.69995ZM15.4938 16.1843C15.4938 16.5057 15.2308 16.7687 14.9094 16.7687H2.74063C2.41922 16.7687 2.15625 16.5057 2.15625 16.1843V8.41558C2.15625 8.09417 2.41922 7.8312 2.74063 7.8312H14.9094C15.2308 7.8312 15.4938 8.09417 15.4938 8.41558V16.1843Z" fill="#444444" stroke="#444444" stroke-width="0.4"/>
<path id="Vector 35" d="M9 10.5V14.5" stroke="#3E7AFA" stroke-width="1.4" stroke-linecap="round"/>
</g>
</svg>
